<svg width="621" height="769" viewBox="0 0 621 769" fill="none" xmlns="http://www.w3.org/2000/svg">
<path d="M161.676 722.637L183.645 722.003L185.303 704.947C193.59 717.224 207.482 724.722 225.925 724.089C259.733 723.059 275.467 697.687 274.441 666.268C273.599 634.453 255.576 610.321 223.241 611.351C206.456 611.773 195.695 619.06 188.223 630.281L186.354 569.529H615.21V769H28.3887V569.529H156.914L161.676 722.637ZM406.466 661.885C405.44 627.35 384.707 606.149 347.188 607.39C309.67 608.419 289.991 630.888 291.017 665.423C292.043 699.957 312.986 721.159 350.504 719.918C387.812 718.888 407.308 696.419 406.466 661.885ZM502.444 605.938L474.872 644.011H472.793L442.957 607.602L421.199 608.235L422.225 631.521L450.824 659.403L422.225 691.033L422.856 714.32L444.404 713.687L474.056 673.739H476.135L508.049 711.812L529.202 711.601L528.36 688.103L497.894 658.347L525.045 628.803L524.203 605.304L502.444 605.938ZM555.723 680.604L556.564 710.359V710.333L584.559 709.304L583.717 679.76L555.723 680.604ZM215.559 638.756C234.212 637.726 244.579 650.4 245.211 666.849V666.875C245.632 683.297 236.081 696.63 217.427 697.237H213.48C212.513 697.148 211.551 697.018 210.604 696.855C210.011 696.768 209.425 696.652 208.847 696.508C208.167 696.355 207.499 696.187 206.851 695.997C206.219 695.786 205.403 695.575 204.771 695.363C204.14 695.152 203.535 694.73 202.693 694.519C193.169 689.74 187.144 679.759 187.144 668.089C187.144 651.852 199.168 638.756 214.717 638.756H215.559ZM347.609 634.242C366.263 633.609 376.419 646.519 376.84 662.73C377.471 679.153 368.131 692.487 349.478 693.094C331.034 693.727 320.668 680.816 320.036 664.605C319.615 648.368 329.166 634.849 347.609 634.242ZM588.479 346.349L586.611 545.819L0 536.051L1.02637 430.81L24.6523 433.503V487.391C24.6524 508.407 37.9129 521.714 63.4072 521.714C78.746 521.714 90.9806 519.84 100.926 517.146L94.9268 494.255C87.0601 497.159 79.7982 498.611 69.6426 498.611C59.4873 498.611 55.751 491.536 55.751 483.008V433.292H92.2432V412.486H55.751V385.239H24.8633V412.486H1.23633L1.86816 336.342L588.479 346.349ZM237.738 361.741C212.033 361.741 197.932 375.259 197.932 396.275V412.513H171.411V430.414L197.932 433.318V518.176H228.608V433.318H285.623V518.176H316.301V433.318H352.793V412.513H316.116V400.447C316.116 392.342 320.879 384.632 331.455 384.632C341.39 384.632 349.251 386.291 356.926 389.189L362.317 366.73C353.004 363.615 342.216 361.952 325.22 361.952C299.515 361.952 285.412 375.47 285.412 396.486V412.725H228.398V400.658C228.398 392.553 233.161 384.843 243.737 384.843C253.682 384.843 261.549 386.507 269.231 389.411L274.836 366.52C265.733 363.404 254.945 361.741 237.738 361.741ZM118.343 518.149H149.231V412.486H118.343V518.149ZM372.71 518.149H403.177V412.486H372.71V518.149ZM506.786 409.16C489.579 409.16 473.188 417.688 465.11 429.754L462.217 412.486H439.011V518.149H469.899V456.579C473.846 444.302 483.58 435.984 498.919 435.984C514.258 435.984 519.862 444.302 519.862 456.579V518.149H550.514V449.503C550.514 423.919 537.253 409.16 506.786 409.16ZM118.343 394.374H149.231V363.378H118.343V394.374ZM372.71 394.374H403.177V363.378H372.71V394.374ZM194.248 258.11L224.083 258.744L225.53 199.471C229.45 187.827 239.422 179.907 253.919 180.329C268.837 180.752 273.809 188.856 273.599 200.711L272.152 260.196L301.804 260.83L303.461 194.691C304.092 169.926 293.305 155.378 264.496 154.744C248.526 154.322 234.212 160.791 226.346 172.012L227.793 112.949H620.209V312.395H33.1768V112.923H197.773L194.248 258.11ZM382.207 157.887C345.531 156.831 325.641 177.425 324.799 210.507C323.957 244.645 345.321 265.213 381.997 266.058C400.256 266.48 415.174 263.549 426.987 257.529L415.595 234.242C406.886 238.387 395.073 240.474 383.47 240.263C365.658 239.84 355.292 230.467 354.871 217.371L433.617 219.245V213.227C434.433 180.144 418.489 158.732 382.207 157.887ZM106.529 154.138L81.0352 153.504L80.6143 170.56L106.108 174.098L104.872 226.11C104.477 246.282 116.896 259.378 141.364 260.012H141.338C156.072 260.434 167.885 258.982 177.409 256.685L172.227 234.639C164.544 237.147 157.282 238.388 147.758 238.177C138.023 237.966 134.498 231.101 134.708 222.784L135.944 174.942L170.963 175.787L171.384 155.827L136.365 154.982L136.997 128.554L107.161 127.708L106.529 154.138ZM381.182 182.019C397.125 182.23 405.018 192.633 404.808 202.401L354.845 201.16C355.897 191.576 364.606 181.596 381.182 182.019ZM431.539 0C456.823 4.58653e-05 477.135 20.5943 477.135 45.7559V89.0293H450.219V49.5049C450.219 37.0165 440.274 27.0361 427.829 27.0361H215.77C203.325 27.0361 193.38 37.0165 193.38 49.5049V89.0293H166.438V45.7559C166.438 20.3831 186.96 0.000149972 212.033 0H431.539Z" fill="url(#paint0_linear_1_47)" fill-opacity="0.2"/>
<defs>
<linearGradient id="paint0_linear_1_47" x1="139.243" y1="-66.9707" x2="652.279" y2="788.24" gradientUnits="userSpaceOnUse">
<stop stop-color="#080808"/>
<stop offset="0.519249" stop-color="white"/>
<stop offset="1" stop-color="#080808"/>
</linearGradient>
</defs>
</svg>
